Coordinates
version=1
nRows=5
nColumns=42
inDegrees=yes

Units are S.I. units (second, meters, Newtons, ...)
If the header above contains a line with 'inDegrees', this indicates whether rotational values are in degrees (yes) or radians (no).

endheader
time	pelvis_tilt	pelvis_list	pelvis_rotation	pelvis_tx	pelvis_ty	pelvis_tz	hip_flexion_r	hip_adduction_r	hip_rotation_r	knee_angle_r	knee_adduction_r	knee_angle_r_beta	ankle_angle_r	subtalar_angle_r	mtp_angle_r	hip_flexion_l	hip_adduction_l	hip_rotation_l	knee_angle_l	knee_adduction_l	knee_angle_l_beta	ankle_angle_l	subtalar_angle_l	mtp_angle_l	lumbar_extension	lumbar_bending	lumbar_rotation	arm_flex_r	arm_add_r	arm_rot_r	elbow_flex_r	pro_sup_r	wrist_flex_r	wrist_dev_r	arm_flex_l	arm_add_l	arm_rot_l	elbow_flex_l	pro_sup_l	wrist_flex_l	wrist_dev_l
      2.50000000	      1.80323013	     -8.06568733	     -2.90969399	     -1.22414378	      0.82668226	      0.33905665	      6.44186015	      7.62511925	    -28.50888002	     22.35212102	     -3.65411493	      0.39011811	     19.77691081	     31.99730879	     -7.53978357	     19.41986710	    -19.70926588	    -20.62861511	     56.20155054	    -11.59393373	      0.98090210	     15.16961025	      8.57688433	     -7.53978357	    -27.42590005	      8.99169440	      2.09938537	     -7.20443639	     -2.60339218	    -12.07494367	    105.78840494	     90.00000001	      0.00000000	      0.00000000	      2.76640580	     -8.35527742	    -18.04135003	     53.70896796	     90.00000001	      0.00000000	      0.00000000
      2.51000000	      1.61998175	     -8.15313992	     -2.94098779	     -1.22261132	      0.82628913	      0.33874350	      6.48633134	      7.66896624	    -28.67594296	     22.29963310	     -3.64275544	      0.38920202	     19.87937674	     32.18986219	     -7.53884989	     20.38034678	    -20.05846553	    -21.87191120	     55.02464881	    -11.91705166	      0.96036129	     15.84291224	      9.43093156	     -7.53884989	    -27.42750549	      9.07486745	      1.99302908	     -7.24629408	     -2.47015740	    -11.93953794	    105.88705570	     90.00000001	      0.00000000	      0.00000000	      2.82011458	     -8.45497232	    -17.99616871	     53.69434296	     90.00000001	      0.00000000	      0.00000000
      2.52000000	      1.44521366	     -8.28372825	     -2.96927404	     -1.22162549	      0.82601624	      0.33837428	      6.56938148	      7.73001839	    -28.72670896	     22.32333110	     -3.49609779	      0.38961563	     19.89817299	     32.00027821	     -7.53851605	     21.33770818	    -20.31180316	    -22.20302675	     53.85026815	    -11.62746973	      0.93986448	     16.03704377	      9.54603634	     -7.53851605	    -27.56736892	      9.14725404	      2.00207297	     -7.09530740	     -2.37169407	    -11.81799914	    105.99736423	     90.00000001	      0.00000000	      0.00000000	      3.03584939	     -8.51237867	    -17.94808867	     53.83056524	     90.00000001	      0.00000000	      0.00000000
      2.53000000	      1.22544883	     -8.28268000	     -3.21765249	     -1.22000331	      0.82549709	      0.33797180	      6.76791071	      7.67590015	    -28.75912137	     22.51626939	     -3.66443657	      0.39298304	     20.11023137	     32.62666355	     -7.53695217	     22.18736685	    -20.53620692	    -24.46094553	     52.30098093	    -12.69921469	      0.91282432	     17.14456132	     13.85908889	     -7.53695217	    -27.51074176	      9.05498628	      2.10284794	     -7.19565521	     -2.41241416	    -11.64676465	    106.06827525	     90.00000001	      0.00000000	      0.00000000	      3.14276099	     -8.55112260	    -17.84086202	     53.73006781	     90.00000001	      0.00000000	      0.00000000
      2.54000000	      1.05717240	     -8.44207324	     -3.21757566	     -1.21863838	      0.82514524	      0.33737760	      6.80629746	      7.79821537	    -28.78872280	     22.48328287	     -3.58856245	      0.39240731	     20.15641824	     32.45975193	     -7.53662128	     23.03302606	    -20.72374681	    -24.71960850	     50.98794590	    -12.34724317	      0.88990753	     17.30250947	     14.07968544	     -7.53662128	    -27.56311525	      9.18657131	      2.04333335	     -7.20011720	     -2.34025976	    -11.56911149	    106.21014775	     90.00000001	      0.00000000	      0.00000000	      3.22139811	     -8.60928521	    -17.81418510	     53.81553168	     90.00000001	      0.00000000	      0.00000000
